<svg width="40" height="40" viewBox="0 0 40 40" fill="none" xmlns="http://www.w3.org/2000/svg">
<g clip-path="url(#clip0_1_372)">
<path d="M24.5238 16.2844L18.5138 21.961L15.6294 18.9936C15.3097 18.6644 14.7831 18.6569 14.4543 18.9767C14.1251 19.2968 14.1176 19.823 14.4373 20.1522L17.8967 23.7034C18.2181 24.0268 18.7375 24.0379 19.0722 23.7282L25.6827 17.4932C25.8432 17.3417 25.937 17.1327 25.9432 16.9122C25.9494 16.6918 25.8677 16.4779 25.7159 16.3177C25.3942 15.9832 24.8638 15.9686 24.5238 16.2844Z" fill="#121212"/>
<path d="M20.0641 7.54803C13.1954 7.54803 7.61031 13.1331 7.61031 20.0018C7.61031 26.8708 13.1954 32.4559 20.0641 32.4559C26.9331 32.4559 32.5182 26.8708 32.5182 20.0018C32.5182 13.1331 26.9331 7.54803 20.0641 7.54803ZM20.0641 30.7887C14.1123 30.7887 9.2775 25.9454 9.2775 20.0018C9.2775 14.0582 14.1123 9.21522 20.0641 9.21522C26.0217 9.21522 30.851 14.0445 30.851 20.0018C30.851 25.9591 26.0217 30.7887 20.0641 30.7887Z" fill="#121212"/>
<path d="M37.2029 15.4173L37.4781 10.474C37.4973 10.1422 37.3169 9.83054 37.0196 9.68206L32.6182 7.45643L30.3925 3.05499C30.2411 2.7603 29.9315 2.58088 29.6006 2.59651L24.6489 2.86352L20.5226 0.13741C20.2445 -0.0459153 19.8841 -0.0459153 19.6056 0.13741L15.4794 2.86352L10.5364 2.58837C10.2043 2.56883 9.89298 2.74923 9.74449 3.04685L7.51854 7.44829L3.11742 9.67392C2.82241 9.82501 2.64331 10.1347 2.65894 10.4658L2.93377 15.4091L0.207982 19.5354C0.0246566 19.8135 0.0246566 20.1739 0.207982 20.4524L2.92563 24.5868L2.65048 29.5301C2.63127 29.8619 2.81134 30.1735 3.10895 30.322L7.5104 32.5476L9.73603 36.949C9.88712 37.2441 10.1968 37.4232 10.5279 37.4075L15.4712 37.1324L19.5975 39.8582C19.874 40.0473 20.238 40.0473 20.5145 39.8582L24.6408 37.1324L29.584 37.4075C29.9158 37.4267 30.2271 37.2463 30.3759 36.949L32.6016 32.5476L37.003 30.322C37.2977 30.1706 37.4771 29.8612 37.4615 29.5301L37.1863 24.5868L39.9121 20.4605C40.0955 20.1824 40.0955 19.8216 39.9121 19.5435L37.2029 15.4173ZM35.6523 23.9033C35.5507 24.0524 35.5035 24.2319 35.5192 24.4119L35.7774 29.0882L31.6179 31.1888C31.4593 31.2682 31.3307 31.3972 31.2512 31.5558L29.1503 35.7153L24.474 35.457C24.2949 35.4505 24.1181 35.4968 23.9654 35.5902L20.0641 38.1662L16.1632 35.5902C16.0277 35.4987 15.8682 35.4492 15.7047 35.4486H15.663L10.9864 35.7071L8.88583 31.5473C8.80637 31.3887 8.67775 31.2601 8.51885 31.1806L4.35088 29.0882L4.60942 24.4119C4.61594 24.2328 4.56937 24.056 4.47592 23.9033L1.90024 20.002L4.47592 16.1007C4.57784 15.9519 4.62505 15.7722 4.60942 15.5924L4.35088 10.9158L8.51071 8.81525C8.66929 8.7358 8.79791 8.60718 8.87736 8.4486L10.978 4.28877L15.6545 4.54732C15.8333 4.5535 16.0101 4.50727 16.1632 4.41381L20.0641 1.83814L23.9654 4.41381C24.1145 4.51573 24.2943 4.56295 24.474 4.54732L29.1503 4.28877L31.2512 8.4486C31.3307 8.60718 31.4593 8.7358 31.6179 8.81525L35.7774 10.9158L35.5192 15.5924C35.5126 15.7712 35.5592 15.948 35.6523 16.1007L38.2283 20.002L35.6523 23.9033Z" fill="#121212"/>
</g>
<defs>
<clipPath id="clip0_1_372">
<rect width="40" height="40" fill="white"/>
</clipPath>
</defs>
</svg>
