<svg width="37" height="34" viewBox="0 0 37 34" fill="none" xmlns="http://www.w3.org/2000/svg">
<path d="M28.5071 12.9247H26.4892L27.0972 6.46158C27.0983 6.44987 27.0985 6.43834 27.0986 6.4268C27.0986 6.42582 27.0987 6.42489 27.0987 6.4239C27.0987 6.42373 27.0987 6.42361 27.0987 6.42344C27.0987 6.24753 26.9841 6.09249 26.8156 6.02508C26.8141 6.0245 26.8128 6.0238 26.8113 6.02322C26.8009 6.01917 26.79 6.01569 26.7792 6.01233C26.7751 6.01111 26.7712 6.0096 26.7671 6.00844C26.7582 6.00595 26.7491 6.00398 26.74 6.00195C26.7336 6.00056 26.7275 5.99888 26.7211 5.99772C26.7131 5.99627 26.7048 5.99534 26.6967 5.99424C26.6891 5.9932 26.6816 5.99198 26.6739 5.99134C26.6725 5.99123 26.6714 5.991 26.67 5.99088C26.6618 5.99019 26.6536 5.9903 26.6454 5.99001C26.6399 5.98984 26.6345 5.98926 26.629 5.98926H26.6231C26.6226 5.98926 26.6221 5.98926 26.6217 5.98926H17.0203C16.7612 5.98926 16.5508 6.184 16.5508 6.42396C16.5508 6.66334 16.7612 6.85866 17.0203 6.85866H26.1173L25.1829 16.7916C25.1827 16.7924 25.1827 16.7931 25.1826 16.7939L24.9468 19.3002H8.63214L8.90502 16.6921H12.0114C12.2708 16.6921 12.4809 16.4974 12.4809 16.2573C12.4809 16.0173 12.2708 15.8226 12.0114 15.8226H8.99605L9.57224 10.3167H14.5162C14.7756 10.3167 14.9858 10.1221 14.9858 9.88199C14.9858 9.64192 14.7756 9.44729 14.5162 9.44729H9.66326L9.9342 6.85866H15.1423C15.4008 6.85866 15.6118 6.66334 15.6118 6.42396C15.6118 6.184 15.4008 5.98926 15.1423 5.98926H9.50807C9.50782 5.98926 9.50763 5.98932 9.50738 5.98932C9.28683 5.98926 9.09552 6.133 9.04926 6.33227C9.04894 6.33372 9.04838 6.33511 9.04807 6.33656C9.04569 6.3474 9.04412 6.35847 9.04256 6.36959C9.04212 6.37313 9.04131 6.37649 9.04093 6.38003C9.04087 6.38072 9.04068 6.38136 9.04062 6.38206L8.71984 9.44729H3.02811C2.76875 9.44729 2.55859 9.64192 2.55859 9.88199C2.55859 10.1221 2.76875 10.3167 3.02811 10.3167H8.62882L8.05263 15.8226H6.37746C6.1181 15.8226 5.90794 16.0173 5.90794 16.2573C5.90794 16.4974 6.1181 16.6921 6.37746 16.6921H7.96167L7.64791 19.6898C7.64784 19.6903 7.64784 19.6907 7.64778 19.6912L7.16268 24.3268C7.16261 24.3273 7.16255 24.3279 7.16249 24.3283L7.1623 24.33C7.16167 24.336 7.16174 24.342 7.16136 24.348C7.16092 24.356 7.16005 24.3638 7.16005 24.3719C7.16005 24.3723 7.16011 24.3726 7.16011 24.373C7.16011 24.3842 7.16099 24.3952 7.16186 24.4062C7.16224 24.4098 7.16211 24.4134 7.16255 24.4168C7.1638 24.4281 7.16587 24.4392 7.16806 24.4502C7.16869 24.4534 7.169 24.4567 7.16969 24.4599C7.1715 24.4683 7.17407 24.4763 7.17645 24.4845C7.17808 24.4902 7.17939 24.4961 7.18127 24.5017C7.18183 24.5033 7.18258 24.5048 7.18308 24.5064C7.20581 24.5711 7.24437 24.6291 7.2947 24.6766C7.29564 24.6774 7.29639 24.6784 7.29733 24.6792C7.30234 24.6839 7.30779 24.688 7.31305 24.6924C7.34541 24.7199 7.38197 24.7432 7.42197 24.7615C7.4303 24.7653 7.4385 24.7693 7.44702 24.7726C7.44958 24.7736 7.45234 24.7743 7.45497 24.7753C7.46674 24.7796 7.47857 24.7838 7.49078 24.7873C7.4919 24.7876 7.49297 24.7878 7.49409 24.7881C7.50799 24.792 7.52201 24.7953 7.53635 24.798C7.53823 24.7984 7.54017 24.7985 7.54198 24.7989C7.55563 24.8012 7.56934 24.8033 7.5833 24.8045C7.58361 24.8045 7.58386 24.8046 7.58418 24.8047C7.59958 24.806 7.61485 24.8067 7.63 24.8067C7.63019 24.8067 7.63044 24.8067 7.63069 24.8067H9.72085C9.95167 26.4268 11.4519 27.6817 13.264 27.6817C15.0759 27.6817 16.5761 26.4268 16.8069 24.8067H24.3379C24.5688 26.4268 26.069 27.6817 27.881 27.6817C29.6929 27.6817 31.1932 26.4268 31.4241 24.8067H33.5148C33.5151 24.8067 33.5155 24.8067 33.5158 24.8067C33.5314 24.8067 33.5468 24.8059 33.5621 24.8045C33.5649 24.8042 33.5675 24.8037 33.5702 24.8034C33.5825 24.8021 33.5946 24.8005 33.6065 24.7983C33.6116 24.7974 33.6166 24.7961 33.6216 24.795C33.6308 24.7931 33.6401 24.791 33.6491 24.7885C33.6553 24.7868 33.6612 24.7848 33.6672 24.7829C33.6749 24.7805 33.6826 24.7779 33.6902 24.7751C33.6967 24.7727 33.7029 24.7701 33.7092 24.7675C33.7161 24.7645 33.723 24.7615 33.7297 24.7583C33.7361 24.7553 33.7422 24.7522 33.7484 24.749C33.7548 24.7455 33.7612 24.7419 33.7675 24.7382C33.7734 24.7347 33.7793 24.7312 33.7849 24.7274C33.7913 24.7233 33.7974 24.719 33.8036 24.7146C33.8087 24.7108 33.8139 24.7071 33.8189 24.7032C33.8253 24.6981 33.8314 24.6928 33.8376 24.6875C33.8418 24.6837 33.8463 24.68 33.8504 24.676C33.8569 24.6699 33.8631 24.6634 33.8693 24.6569C33.8726 24.6533 33.8761 24.6499 33.8793 24.6463C33.8861 24.6384 33.8924 24.6303 33.8987 24.6221C33.9008 24.6193 33.9032 24.6166 33.9052 24.6137C33.9129 24.6031 33.9201 24.5922 33.9267 24.581C33.9272 24.5803 33.9277 24.5796 33.928 24.5789C33.9351 24.5668 33.9416 24.5545 33.9474 24.5417C33.9491 24.5381 33.9503 24.5343 33.9519 24.5307C33.9557 24.5217 33.9594 24.5127 33.9626 24.5034C33.9647 24.4973 33.9662 24.4911 33.968 24.4851C33.9701 24.4778 33.9723 24.4706 33.974 24.4633C33.9756 24.4567 33.9766 24.45 33.9778 24.4433C33.9789 24.4375 33.9802 24.4317 33.981 24.4258C34.0009 24.2781 34.3686 21.547 34.5328 19.7811C34.533 19.7794 34.5331 19.7777 34.5333 19.776C34.5805 19.2669 34.6108 18.8383 34.6108 18.5758C34.6108 15.4598 31.8727 12.9247 28.5071 12.9247ZM26.4074 13.7942H28.3282L28.0828 16.4022H26.162L26.4074 13.7942ZM13.2641 26.8122C11.8106 26.8122 10.6282 25.7175 10.6282 24.3719C10.6282 23.0263 11.8107 21.9315 13.2641 21.9315C14.7175 21.9315 15.8999 23.0263 15.8999 24.3719C15.8999 25.7175 14.7175 26.8122 13.2641 26.8122ZM27.881 26.8122C26.4276 26.8122 25.2452 25.7175 25.2452 24.3719C25.2452 23.0263 26.4276 21.9315 27.881 21.9315C29.3344 21.9315 30.5168 23.0263 30.5168 24.3719C30.5168 25.7175 29.3344 26.8122 27.881 26.8122ZM33.0999 23.937H31.4242C31.1935 22.3167 29.6932 21.0618 27.8811 21.0618C26.0691 21.0618 24.5688 22.3168 24.338 23.937H16.8071C16.5764 22.3167 15.0761 21.0618 13.2641 21.0618C11.4521 21.0618 9.95167 22.3168 9.72092 23.937H8.14685L8.54118 20.1693H25.3771V20.1696C25.3774 20.1696 25.3776 20.1696 25.3778 20.1696C25.3935 20.1696 25.4091 20.1687 25.4245 20.1673C25.4274 20.1671 25.4302 20.1665 25.4331 20.1661C25.4454 20.1648 25.4576 20.1632 25.4696 20.161C25.4748 20.16 25.4798 20.1587 25.485 20.1575C25.4944 20.1554 25.5038 20.1534 25.5129 20.1508C25.5192 20.1491 25.5251 20.147 25.5312 20.145C25.5391 20.1425 25.547 20.14 25.5546 20.1371C25.5612 20.1346 25.5675 20.1318 25.5739 20.129C25.5808 20.1261 25.5878 20.1231 25.5945 20.1199C25.6009 20.1168 25.6071 20.1134 25.6134 20.11C25.6199 20.1066 25.6263 20.103 25.6325 20.0993C25.6386 20.0957 25.6444 20.0918 25.6502 20.088C25.6564 20.084 25.6624 20.0798 25.6684 20.0754C25.6738 20.0714 25.6791 20.0673 25.6844 20.0631C25.6903 20.0583 25.6961 20.0535 25.7018 20.0484C25.7065 20.0442 25.7113 20.0398 25.7159 20.0354C25.7216 20.0299 25.727 20.0243 25.7324 20.0186C25.7366 20.0141 25.7407 20.0095 25.7447 20.0049C25.7499 19.9988 25.7549 19.9925 25.7597 19.9862C25.7634 19.9815 25.767 19.9767 25.7705 19.9719C25.7751 19.9653 25.7795 19.9586 25.7837 19.9517C25.7868 19.9466 25.7901 19.9415 25.793 19.9363C25.7969 19.9295 25.8003 19.9225 25.8039 19.9155C25.8066 19.9099 25.8094 19.9044 25.812 19.8986C25.815 19.8918 25.8176 19.8847 25.8203 19.8777C25.8226 19.8715 25.825 19.8653 25.8271 19.8589C25.8292 19.8522 25.8309 19.8453 25.8327 19.8385C25.8346 19.8316 25.8366 19.8248 25.838 19.8177C25.8394 19.8109 25.8403 19.8039 25.8414 19.797C25.8426 19.7898 25.8439 19.7827 25.8446 19.7754C25.8448 19.7744 25.845 19.7734 25.8451 19.7724L26.0804 17.2714H28.507C29.9455 17.2714 30.5943 17.9614 31.2811 18.6921C31.8479 19.2949 32.4806 19.9676 33.5561 20.1317C33.4195 21.4688 33.1987 23.1854 33.0999 23.937ZM33.6364 19.2605C32.9387 19.1288 32.5094 18.6747 31.9894 18.1215C31.339 17.4298 30.545 16.5856 29.0229 16.4283L29.2658 13.8463C31.7552 14.1871 33.6718 16.1779 33.6718 18.5759C33.6718 18.7389 33.6586 18.9756 33.6364 19.2605Z" fill="#121212" stroke="#121212" stroke-width="0.2"/>
<path d="M13.2636 22.7783C12.3143 22.7783 11.542 23.4933 11.542 24.3722C11.542 25.2511 12.3143 25.9661 13.2636 25.9661C14.2128 25.9661 14.9851 25.2511 14.9851 24.3722C14.9851 23.4934 14.2128 22.7783 13.2636 22.7783ZM13.2636 25.0967C12.832 25.0967 12.481 24.7718 12.481 24.3722C12.481 23.9727 12.832 23.6477 13.2636 23.6477C13.6951 23.6477 14.0461 23.9727 14.0461 24.3722C14.0461 24.7718 13.695 25.0967 13.2636 25.0967Z" fill="#121212"/>
<path d="M27.8817 22.7783C26.9325 22.7783 26.1602 23.4933 26.1602 24.3722C26.1602 25.2511 26.9325 25.9661 27.8817 25.9661C28.831 25.9661 29.6033 25.2511 29.6033 24.3722C29.6033 23.4934 28.831 22.7783 27.8817 22.7783ZM27.8817 25.0967C27.4502 25.0967 27.0992 24.7718 27.0992 24.3722C27.0992 23.9727 27.4502 23.6477 27.8817 23.6477C28.3132 23.6477 28.6642 23.9727 28.6642 24.3722C28.6642 24.7718 28.3132 25.0967 27.8817 25.0967Z" fill="#121212"/>
<path d="M7.00338 12.9247H4.70801C4.44865 12.9247 4.23849 13.1193 4.23849 13.3594C4.23849 13.5995 4.44865 13.7941 4.70801 13.7941H7.00338C7.26275 13.7941 7.4729 13.5995 7.4729 13.3594C7.4729 13.1193 7.26275 12.9247 7.00338 12.9247Z" fill="#121212" stroke="#121212" stroke-width="0.2"/>
</svg>
