<svg width="40" height="40" viewBox="0 0 40 40" fill="none" xmlns="http://www.w3.org/2000/svg">
<g clip-path="url(#clip0_1_354)">
<path d="M10.8336 31.6667H7.50026C7.04026 31.6667 6.66693 31.2933 6.66693 30.8333C6.66693 30.3733 7.04026 30 7.50026 30H10.8336C11.2936 30 11.6669 30.3733 11.6669 30.8333C11.6669 31.2933 11.2936 31.6667 10.8336 31.6667Z" fill="#121212"/>
<path d="M37.9166 31.667H35.8333C35.3733 31.667 34.9999 31.2937 34.9999 30.8337C34.9999 30.3737 35.3733 30.0003 35.8333 30.0003H37.2249L38.3483 24.0137C38.3333 20.9503 35.7166 18.3337 32.4999 18.3337H27.0283L24.3766 30.0003H29.1666C29.6266 30.0003 29.9999 30.3737 29.9999 30.8337C29.9999 31.2937 29.6266 31.667 29.1666 31.667H23.3333C23.0799 31.667 22.8399 31.552 22.6816 31.3537C22.5233 31.157 22.4633 30.897 22.5199 30.6503L25.5499 17.317C25.6366 16.9353 25.9733 16.667 26.3633 16.667H32.4999C36.6349 16.667 39.9999 20.032 39.9999 24.167L38.7349 30.987C38.6616 31.382 38.3183 31.667 37.9166 31.667Z" fill="#121212"/>
<path d="M32.4997 35.0003C30.203 35.0003 28.333 33.132 28.333 30.8337C28.333 28.5353 30.203 26.667 32.4997 26.667C34.7963 26.667 36.6663 28.5353 36.6663 30.8337C36.6663 33.132 34.7963 35.0003 32.4997 35.0003ZM32.4997 28.3337C31.1213 28.3337 29.9997 29.4553 29.9997 30.8337C29.9997 32.212 31.1213 33.3336 32.4997 33.3336C33.878 33.3336 34.9997 32.212 34.9997 30.8337C34.9997 29.4553 33.878 28.3337 32.4997 28.3337Z" fill="#121212"/>
<path d="M14.1667 35.0003C11.87 35.0003 10 33.132 10 30.8337C10 28.5353 11.87 26.667 14.1667 26.667C16.4633 26.667 18.3333 28.5353 18.3333 30.8337C18.3333 33.132 16.4633 35.0003 14.1667 35.0003ZM14.1667 28.3337C12.7883 28.3337 11.6667 29.4553 11.6667 30.8337C11.6667 32.212 12.7883 33.3336 14.1667 33.3336C15.545 33.3336 16.6667 32.212 16.6667 30.8337C16.6667 29.4553 15.545 28.3337 14.1667 28.3337Z" fill="#121212"/>
<path d="M10.8331 16.6667H4.1664C3.7064 16.6667 3.33307 16.2933 3.33307 15.8333C3.33307 15.3733 3.7064 15 4.1664 15H10.8331C11.2931 15 11.6664 15.3733 11.6664 15.8333C11.6664 16.2933 11.2931 16.6667 10.8331 16.6667Z" fill="#121212"/>
<path d="M10.8336 21.6667H2.50026C2.04026 21.6667 1.66693 21.2933 1.66693 20.8333C1.66693 20.3733 2.04026 20 2.50026 20H10.8336C11.2936 20 11.6669 20.3733 11.6669 20.8333C11.6669 21.2933 11.2936 21.6667 10.8336 21.6667Z" fill="#121212"/>
<path d="M10.8333 26.6667H0.833333C0.373333 26.6667 0 26.2933 0 25.8333C0 25.3733 0.373333 25 0.833333 25H10.8333C11.2933 25 11.6667 25.3733 11.6667 25.8333C11.6667 26.2933 11.2933 26.6667 10.8333 26.6667Z" fill="#121212"/>
<path d="M23.3337 31.667H17.5003C17.0403 31.667 16.667 31.2937 16.667 30.8337C16.667 30.3737 17.0403 30.0003 17.5003 30.0003H22.6687L26.4553 13.3337H7.50033C7.04033 13.3337 6.66699 12.9603 6.66699 12.5003C6.66699 12.0403 7.04033 11.667 7.50033 11.667H27.5003C27.7537 11.667 27.9937 11.782 28.152 11.9803C28.3103 12.177 28.3703 12.437 28.3137 12.6837L24.147 31.017C24.0603 31.3987 23.722 31.667 23.3337 31.667Z" fill="#121212"/>
</g>
<defs>
<clipPath id="clip0_1_354">
<rect width="40" height="40" fill="white"/>
</clipPath>
</defs>
</svg>
