<svg width="20" height="16" viewBox="0 0 20 16" fill="none" xmlns="http://www.w3.org/2000/svg">
<g clip-path="url(#clip0_1_416)">
<path d="M17.1562 14.3723H3.66921C3.60225 14.372 3.5374 14.3505 3.48539 14.3114C3.43338 14.2723 3.39734 14.2178 3.38325 14.1571L0.855877 1.96527C0.847986 1.93088 0.847542 1.89536 0.854568 1.86081C0.861595 1.82625 0.875957 1.79335 0.896812 1.76398C0.917668 1.73462 0.9446 1.7094 0.976053 1.68978C1.0075 1.67016 1.04285 1.65655 1.08002 1.64972C1.11764 1.64246 1.15644 1.64231 1.19411 1.64928C1.23179 1.65625 1.26756 1.67019 1.2993 1.69027C1.33104 1.71035 1.35809 1.73617 1.37885 1.76616C1.3996 1.79616 1.41363 1.82973 1.4201 1.86487L3.93973 13.8344H16.9475L19.3976 1.85052C19.4031 1.81568 19.4163 1.78224 19.4363 1.75229C19.4562 1.72233 19.4826 1.69647 19.5137 1.67632C19.5448 1.65617 19.5801 1.64214 19.6173 1.6351C19.6544 1.62805 19.6928 1.62815 19.73 1.63537C19.7678 1.64137 19.804 1.65438 19.8363 1.67364C19.8687 1.6929 19.8965 1.71801 19.9181 1.74746C19.9397 1.77691 19.9548 1.8101 19.9623 1.84506C19.9698 1.88002 19.9697 1.91602 19.9618 1.95093L17.4345 14.1428C17.4219 14.2048 17.3866 14.2609 17.3344 14.3015C17.2822 14.342 17.2165 14.3645 17.1485 14.3651L17.1562 14.3723Z" fill="#121212"/>
<path d="M14.5899 5.15568C13.7919 5.17359 13.0054 4.97682 12.3253 4.58911C11.727 4.25817 11.0433 4.08346 10.3467 4.08346C9.65012 4.08346 8.96647 4.25817 8.36811 4.58911C7.6818 4.96016 6.9017 5.15566 6.10739 5.15566C5.31308 5.15566 4.53299 4.96016 3.84668 4.58911C3.25547 4.24251 2.56723 4.0654 1.86807 4.07993C1.7915 4.07995 1.71794 4.05222 1.66308 4.00266C1.60822 3.95309 1.57639 3.88559 1.57437 3.81457C1.57633 3.74286 1.6079 3.6746 1.66256 3.62388C1.71722 3.57316 1.7908 3.54387 1.86807 3.54205C2.66682 3.52628 3.45337 3.72556 4.13265 4.11579C4.72231 4.4589 5.40772 4.63348 6.10353 4.6178C6.80429 4.63419 7.49486 4.45966 8.08986 4.11579C8.77312 3.74029 9.55261 3.54216 10.3467 3.54216C11.1408 3.54216 11.9203 3.74029 12.6036 4.11579C13.2028 4.4481 13.8879 4.62358 14.586 4.62358C15.2842 4.62358 15.9693 4.4481 16.5685 4.11579C17.2443 3.72422 18.0289 3.52477 18.8254 3.54205C18.9033 3.54205 18.978 3.57076 19.033 3.62187C19.0881 3.67298 19.1191 3.74229 19.1191 3.81457C19.1191 3.85002 19.1114 3.88513 19.0966 3.9178C19.0817 3.95047 19.06 3.98005 19.0326 4.00479C19.0052 4.02953 18.9728 4.04892 18.9372 4.06183C18.9016 4.07473 18.8636 4.08088 18.8254 4.07993C18.1262 4.0654 17.438 4.24251 16.8468 4.58911C16.1691 4.97586 15.3853 5.17261 14.5899 5.15568Z" fill="#121212"/>
<path d="M16.9334 16C16.8903 16 16.8477 15.991 16.8089 15.9736C16.7701 15.9562 16.736 15.9309 16.7092 15.8996L3.66277 0.430295C3.63942 0.402512 3.6222 0.370733 3.61209 0.336775C3.60198 0.302817 3.59918 0.26734 3.60385 0.232378C3.60851 0.197415 3.62056 0.163648 3.63928 0.133004C3.65801 0.102359 3.68306 0.0754368 3.71301 0.0537754C3.74295 0.0321141 3.7772 0.0161333 3.81379 0.00675291C3.85039 -0.00262746 3.88861 -0.005225 3.92629 -0.000896318C3.96397 0.00343237 4.00036 0.014609 4.03339 0.0319877C4.06641 0.0493664 4.09543 0.07261 4.11877 0.100393L17.1575 15.5697C17.1819 15.5966 17.2001 15.6278 17.211 15.6615C17.2219 15.6951 17.2253 15.7305 17.2209 15.7654C17.2166 15.8004 17.2046 15.8341 17.1857 15.8645C17.1669 15.895 17.1415 15.9216 17.1111 15.9426C17.0603 15.9793 16.9978 15.9995 16.9334 16Z" fill="#121212"/>
<path d="M3.89344 16C3.8288 16.0006 3.76595 15.9803 3.71568 15.9426C3.68565 15.9215 3.66041 15.895 3.64143 15.8648C3.62244 15.8346 3.6101 15.8012 3.60507 15.7666C3.60004 15.7319 3.60243 15.6967 3.61213 15.6629C3.62183 15.6291 3.63863 15.5974 3.66157 15.5697L16.708 0.100361C16.7314 0.0730378 16.7603 0.0502523 16.7931 0.0333013C16.8259 0.0163503 16.8621 0.00556242 16.8994 0.0015663C16.9367 -0.00242982 16.9745 0.000435758 17.0106 0.0100034C17.0468 0.0195711 17.0805 0.0356588 17.1099 0.0573324C17.1403 0.0783766 17.1657 0.104943 17.1845 0.135411C17.2034 0.165879 17.2154 0.199609 17.2197 0.234523C17.2241 0.269438 17.2207 0.304803 17.2098 0.338461C17.1989 0.372118 17.1807 0.40336 17.1563 0.430262L4.11757 15.8996C4.09078 15.9309 4.05671 15.9562 4.0179 15.9736C3.97908 15.9909 3.93654 16 3.89344 16Z" fill="#121212"/>
</g>
<defs>
<clipPath id="clip0_1_416">
<rect width="19.1291" height="16" fill="white" transform="translate(0.848633)"/>
</clipPath>
</defs>
</svg>
