<svg width="19" height="16" viewBox="0 0 19 16" fill="none" xmlns="http://www.w3.org/2000/svg">
<g clip-path="url(#clip0_1_406)">
<path d="M9.46423 0C4.70257 0 0.84259 3.58167 0.84259 8C0.84259 12.4183 4.70257 16 9.46423 16C14.2259 16 18.0859 12.4183 18.0859 8C18.0859 3.58167 14.2234 0.005 9.46423 0ZM9.46423 0.533333C11.4988 0.532223 13.4577 1.24913 14.9436 2.53867L14.5589 2.89567C14.4673 2.74067 14.3825 2.60067 14.3125 2.48567C14.2852 2.44723 14.2481 2.41567 14.2045 2.39383C14.1608 2.37199 14.112 2.36056 14.0624 2.36056C14.0128 2.36056 13.964 2.37199 13.9204 2.39383C13.8768 2.41567 13.8396 2.44723 13.8124 2.48567C13.5081 2.98567 12.9556 3.919 12.5479 4.76033L11.1598 6.04867C10.1943 4.37428 9.13167 2.74967 7.97663 1.182C7.94876 1.14833 7.91291 1.12105 7.87186 1.10228C7.83081 1.08351 7.78566 1.07375 7.7399 1.07375C7.69414 1.07375 7.64899 1.08351 7.60794 1.10228C7.56689 1.12105 7.53104 1.14833 7.50316 1.182C7.31385 1.43667 2.85431 7.45467 2.85431 9.86667C2.85324 10.912 3.2433 11.9252 3.95788 12.7333L3.57852 13.0843C2.50953 12.021 1.79868 10.6911 1.53334 9.25796C1.26801 7.82483 1.45977 6.35099 2.08504 5.01763C2.71031 3.68427 3.74184 2.54949 5.05283 1.75282C6.36381 0.956136 7.89711 0.532273 9.46423 0.533333ZM13.0304 5.06833L14.4188 3.77967C15.0493 4.89667 15.448 5.77033 15.4994 6.16667C15.4994 6.52029 15.348 6.85943 15.0785 7.10948C14.809 7.35952 14.4435 7.5 14.0624 7.5C13.6813 7.5 13.3158 7.35952 13.0464 7.10948C12.7769 6.85943 12.6255 6.52029 12.6255 6.16667C12.7101 5.78564 12.8463 5.41605 13.0307 5.06667L13.0304 5.06833ZM13.8185 3.58267C13.8968 3.446 13.9777 3.307 14.0624 3.16433C14.0876 3.206 14.1109 3.247 14.1343 3.28867L13.8185 3.58267ZM4.36812 12.3517C3.76007 11.6463 3.42889 10.7699 3.42908 9.86667C3.42908 7.92 6.80589 3.104 7.7399 1.809C8.8241 3.30442 9.82411 4.85093 10.7359 6.44233L4.36812 12.3517ZM11.0068 6.945C11.6121 8.092 12.0507 9.16667 12.0507 9.86667C12.0519 10.6512 11.804 11.4187 11.3381 12.0735C10.8722 12.7282 10.2089 13.2411 9.43082 13.5482C8.65278 13.8554 7.7945 13.9432 6.96304 13.8006C6.13158 13.6581 5.36377 13.2915 4.75538 12.7467L11.0068 6.945ZM9.46423 15.4667C7.42966 15.4678 5.47078 14.7509 3.98482 13.4613L4.34872 13.123C5.03739 13.7426 5.90758 14.1601 6.85055 14.3234C7.79351 14.4866 8.76742 14.3884 9.65056 14.041C10.5337 13.6935 11.2869 13.1122 11.816 12.3698C12.3451 11.6274 12.6267 10.7567 12.6255 9.86667C12.6255 9.052 12.1161 7.82533 11.4346 6.54867L12.0866 5.94467C12.0719 6.00504 12.0609 6.06614 12.0536 6.12767C12.0536 6.13833 12.0518 6.14933 12.0518 6.161C12.0518 6.65607 12.2637 7.13087 12.641 7.48093C13.0183 7.831 13.53 8.02767 14.0635 8.02767C14.5971 8.02767 15.1087 7.831 15.486 7.48093C15.8633 7.13087 16.0752 6.65607 16.0752 6.161C16.0752 6.15067 16.0752 6.14033 16.0734 6.13C16.0073 5.527 15.3772 4.31967 14.8448 3.38767L15.351 2.918C16.4192 3.98144 17.1294 5.31128 17.3942 6.74411C17.6591 8.17694 17.467 9.65035 16.8417 10.9833C16.2164 12.3162 15.1851 13.4506 13.8744 14.2471C12.5638 15.0436 11.0309 15.4675 9.46423 15.4667Z" fill="#121212"/>
<path d="M15.2038 10.5101C15.2085 10.478 15.207 10.4454 15.1995 10.4138C15.0519 9.94263 14.8538 9.48635 14.6082 9.0518C14.5847 9.00671 14.5479 8.96869 14.5022 8.94208C14.4564 8.91548 14.4035 8.90137 14.3496 8.90137C14.2956 8.90137 14.2427 8.91548 14.1969 8.94208C14.1512 8.96869 14.1144 9.00671 14.0909 9.0518C13.8453 9.4863 13.6473 9.94259 13.5 10.4138C13.4924 10.4454 13.491 10.478 13.4957 10.5101C13.5241 10.7016 13.6263 10.877 13.7833 11.0039C13.9403 11.1309 14.1415 11.2008 14.3497 11.2008C14.558 11.2008 14.7592 11.1309 14.9162 11.0039C15.0732 10.877 15.1754 10.7016 15.2038 10.5101ZM14.3496 10.6668C14.2884 10.6669 14.2287 10.6488 14.1794 10.6152C14.13 10.5816 14.0935 10.5343 14.0751 10.4801C14.1512 10.2506 14.2429 10.0257 14.3496 9.8068C14.4564 10.0254 14.548 10.2501 14.624 10.4795C14.6055 10.5336 14.5689 10.5809 14.5196 10.6146C14.4703 10.6482 14.4108 10.6665 14.3496 10.6668Z" fill="#121212"/>
<path d="M16.0746 11.4668H15.4998V12.0001H16.0746V11.4668Z" fill="#121212"/>
<path d="M15.2123 11.4668H14.6375V12.0001H15.2123V11.4668Z" fill="#121212"/>
<path d="M16.0746 10.666H15.4998V11.1993H16.0746V10.666Z" fill="#121212"/>
</g>
<defs>
<clipPath id="clip0_1_406">
<rect width="17.2433" height="16" fill="white" transform="translate(0.84259)"/>
</clipPath>
</defs>
</svg>
