<svg width="19" height="16" viewBox="0 0 19 16" fill="none" xmlns="http://www.w3.org/2000/svg">
<path fill-rule="evenodd" clip-rule="evenodd" d="M1.44257 8C1.44257 12.4112 5.03137 16 9.44257 16C13.8538 16 17.4426 12.4112 17.4426 8C17.4426 3.5888 13.8538 0 9.44257 0C5.03137 0 1.44257 3.5888 1.44257 8ZM13.6083 6.56569C13.9207 6.25327 13.9207 5.74673 13.6083 5.43431C13.2958 5.1219 12.7893 5.1219 12.4769 5.43431L8.64257 9.26863L6.80825 7.43431C6.49583 7.12189 5.9893 7.12189 5.67688 7.43431C5.36446 7.74673 5.36446 8.25327 5.67688 8.56569L8.07688 10.9657C8.3893 11.2781 8.89583 11.2781 9.20825 10.9657L13.6083 6.56569Z" fill="#3DAB25"/>
</svg>
