<svg width="40" height="40" viewBox="0 0 40 40" fill="none" xmlns="http://www.w3.org/2000/svg">
<g clip-path="url(#clip0_1_379)">
<path d="M7.06298 24.4932C7.03064 24.4932 7.09596 24.4973 7.06298 24.4932V24.4932Z" fill="#121212"/>
<path d="M38.4821 35.3153C35.7727 35.3153 33.101 35.0144 30.5086 34.4366C30.8567 33.4684 31.0436 32.4354 31.0541 31.3734C31.078 28.9478 30.1771 26.6842 28.5173 24.9995C27.416 23.8817 26.0401 23.0679 24.5385 22.6463C24.5254 22.6427 24.5125 22.6394 24.4993 22.6364C20.7082 21.5757 17.2812 19.7185 14.3135 17.1158C13.9891 16.8312 13.4955 16.8635 13.2109 17.188C12.9265 17.5124 12.9587 18.0061 13.2832 18.2905C14.3646 19.2389 15.5036 20.0939 16.6961 20.8532C17.4024 22.2182 17.7509 23.7471 17.7044 25.2918C17.6915 25.7231 18.0306 26.0833 18.4619 26.0962C18.4699 26.0965 18.4778 26.0965 18.4858 26.0965C18.9065 26.0965 19.2536 25.762 19.2663 25.3387C19.2995 24.2382 19.1607 23.1445 18.8615 22.0963C20.1499 22.7598 21.492 23.3211 22.8837 23.7777C23.6869 25.0803 24.149 26.5641 24.2223 28.0866C24.2424 28.5048 24.5878 28.8303 25.002 28.8303C25.0147 28.8303 25.0275 28.83 25.0402 28.8294C25.4712 28.8086 25.8038 28.4424 25.783 28.0115C25.724 26.7855 25.4493 25.5817 24.9793 24.4531C25.8826 24.8331 26.7093 25.391 27.4041 26.0961C29.507 28.2305 30.0293 31.3807 28.9861 34.0631C20.7053 31.8422 13.3438 26.7585 8.3269 19.5551C8.08024 19.201 7.5934 19.114 7.23923 19.3605C6.88514 19.607 6.79803 20.094 7.04461 20.4481C10.5027 25.4134 15.1465 29.5416 20.4739 32.3864C22.941 33.7038 25.554 34.7417 28.2518 35.4871C27.9864 35.8902 27.6797 36.2738 27.3303 36.6306C25.6962 38.1912 23.2437 38.8133 21.0783 38.2156C18.5332 37.5132 16.1124 36.4134 13.9064 34.9701C14.6275 34.8981 15.3424 34.7523 16.0462 34.5293C16.4575 34.3991 16.6854 33.9599 16.5551 33.5485C16.4248 33.1372 15.9859 32.9095 15.5743 33.0396C14.3271 33.4347 13.0399 33.5517 11.7451 33.3892C11.0705 32.8398 10.4221 32.2555 9.80396 31.6374C7.5198 29.3533 5.74263 26.703 4.49378 23.8518C5.299 24.1661 6.19056 24.383 7.06414 24.4924C7.4523 24.4924 7.83795 24.2064 7.88741 23.8112C7.94108 23.383 7.63747 22.9925 7.20923 22.9389C5.94265 22.7802 4.75224 22.3653 3.66583 21.7054C1.67552 15.7694 1.86483 9.17865 4.428 3.2846C5.1786 6.73127 6.58551 10.0311 8.55738 12.9417C8.79943 13.2988 9.2851 13.3923 9.64247 13.1503C9.99968 12.9082 10.0931 12.4225 9.85108 12.0652C7.56168 8.68604 6.07945 4.7501 5.56488 0.683301C5.52246 0.347728 5.26884 0.0775507 4.93655 0.0140301C4.60442 -0.0497248 4.26892 0.107866 4.10555 0.404139C2.69841 2.95551 1.71685 5.7076 1.18798 8.58376C0.666844 11.418 0.597308 14.304 0.981244 17.1617C1.77967 23.1042 4.44847 28.492 8.69903 32.7427C12.022 36.0657 16.159 38.4791 20.6626 39.7221C21.3406 39.9093 22.0412 40 22.7424 40C24.8142 40 26.8908 39.2073 28.4026 37.7672C28.4114 37.7592 28.4204 37.752 28.429 37.7435C28.4366 37.7361 28.4428 37.7282 28.45 37.7206C28.9929 37.1658 29.4567 36.5506 29.8364 35.8896C32.6623 36.5427 35.5667 36.8781 38.4822 36.8781C38.9137 36.8781 39.2635 36.5283 39.2635 36.0968C39.2635 35.6653 38.9137 35.3153 38.4821 35.3153Z" fill="#121212"/>
<path d="M11.3624 16.0607C11.5679 16.0607 11.7694 15.9771 11.9148 15.8317C12.0601 15.6864 12.1437 15.4848 12.1437 15.2794C12.1437 15.0739 12.0601 14.8723 11.9148 14.727C11.7694 14.5816 11.5679 14.498 11.3624 14.498C11.1569 14.498 10.9553 14.5816 10.81 14.727C10.6647 14.8723 10.5811 15.0739 10.5811 15.2794C10.5811 15.4856 10.6647 15.6864 10.81 15.8317C10.9553 15.9771 11.1569 16.0607 11.3624 16.0607Z" fill="#121212"/>
</g>
<defs>
<clipPath id="clip0_1_379">
<rect width="40" height="40" fill="white"/>
</clipPath>
</defs>
</svg>
