<svg width="40" height="40" viewBox="0 0 40 40" fill="none" xmlns="http://www.w3.org/2000/svg">
<g clip-path="url(#clip0_1_366)">
<path d="M37.1518 18.0481C38.3118 14.7154 37.4813 11.0216 34.9616 8.50195C33.1801 6.72038 30.7691 5.75663 28.2675 5.80429C28.044 5.18491 27.7513 4.58968 27.3903 4.03015C26.4998 2.64968 25.2462 1.54835 23.7652 0.845221C23.3755 0.660221 22.9095 0.826158 22.7245 1.21592C22.5394 1.60569 22.7054 2.07171 23.0952 2.25678C25.6049 3.44827 27.2266 6.01226 27.2266 8.78898C27.2266 9.22046 27.5763 9.57023 28.0078 9.57023C28.4393 9.57023 28.7891 9.22046 28.7891 8.78898C28.7891 8.30999 28.7491 7.83515 28.673 7.36804C30.6149 7.42562 32.4668 8.21679 33.8568 9.60679C35.8125 11.5625 36.5428 14.3698 35.8441 16.9883C34.3545 15.9879 32.5633 15.4035 30.638 15.4035C30.2066 15.4035 29.8568 15.7533 29.8568 16.1848C29.8568 16.6162 30.2066 16.966 30.638 16.966C34.9387 16.9661 38.4375 20.4649 38.4375 24.7656C38.4375 29.0662 34.9387 32.565 30.638 32.565C30.5216 32.565 30.4054 32.5615 30.2895 32.5564C32.2641 30.8247 33.4398 28.296 33.4421 25.6174C33.4423 25.3377 33.2931 25.0794 33.0509 24.9398C30.5589 23.5038 27.5401 23.3256 24.92 24.4048C24.5445 21.5963 22.8808 19.0711 20.3913 17.6309C20.1492 17.4909 19.8509 17.4909 19.6088 17.6309C17.1193 19.071 15.4556 21.5963 15.0802 24.4048C12.4602 23.3257 9.44148 23.5039 6.94945 24.9398C6.70719 25.0795 6.55805 25.3378 6.55828 25.6174C6.56055 28.296 7.73633 30.8247 9.71094 32.5564C9.59484 32.5616 9.47859 32.565 9.36203 32.565C5.06133 32.565 1.5625 29.0662 1.5625 24.7656C1.5625 20.4649 5.06133 16.9661 9.36195 16.9661C9.79344 16.9661 10.1432 16.6163 10.1432 16.1848C10.1432 15.7534 9.79344 15.4036 9.36195 15.4036C7.43672 15.4036 5.64547 15.988 4.15594 16.9884C3.45711 14.3699 4.1875 11.5625 6.1432 9.60687C7.5332 8.21679 9.38469 7.42569 11.327 7.36812C11.2509 7.83523 11.2109 8.30999 11.2109 8.78905C11.2109 9.22054 11.5607 9.57031 11.9922 9.57031C12.4237 9.57031 12.7734 9.22054 12.7734 8.78905C12.7734 6.01233 14.3951 3.44835 16.9048 2.25678C17.2946 2.07171 17.4605 1.60577 17.2755 1.21592C17.0905 0.826158 16.6245 0.660143 16.2348 0.845221C14.7537 1.54835 13.5002 2.64968 12.6097 4.03015C12.2488 4.58968 11.956 5.18491 11.7326 5.80421C9.23094 5.7564 6.82 6.72046 5.03844 8.50202C2.51883 11.0216 1.68828 14.7155 2.84828 18.0481C1.09281 19.7508 0 22.1327 0 24.7656C0 29.9278 4.19977 34.1275 9.36195 34.1275C10.1302 34.1275 10.892 34.0343 11.6311 33.8503C12.9316 34.5048 14.3548 34.8331 15.7791 34.8331C16.3026 34.8331 16.8261 34.7879 17.3437 34.6995V39.2187C17.3437 39.6502 17.6934 39.9999 18.1249 39.9999H21.8749C22.3064 39.9999 22.6562 39.6502 22.6562 39.2187V34.6994C23.1738 34.7878 23.6974 34.833 24.2211 34.833C25.6451 34.833 27.0686 34.5048 28.369 33.8503C29.108 34.0343 29.8697 34.1275 30.638 34.1275C35.8002 34.1275 40 29.9278 40 24.7656C40 22.1327 38.9072 19.7508 37.1518 18.0481ZM20 19.2259C22.0135 20.5589 23.2899 22.7811 23.4255 25.1902C21.8984 26.1812 20.7168 27.5958 20.0002 29.2274C19.2834 27.5957 18.1017 26.181 16.5745 25.1901C16.7102 22.7809 17.9866 20.5588 20 19.2259ZM11.9507 32.2492C9.72367 30.9634 8.29141 28.6281 8.135 26.0761C10.4233 24.9358 13.162 25.0084 15.3889 26.2941C17.6159 27.5799 19.0482 29.9152 19.2046 32.4672C16.9163 33.6074 14.1776 33.5348 11.9507 32.2492ZM21.0938 38.4374H18.9062V34.289C19.2786 34.1554 19.644 33.9971 20.0002 33.8142C20.3562 33.997 20.7215 34.1553 21.0938 34.2888V38.4374ZM20.7957 32.4671C20.9523 29.9153 22.3845 27.5797 24.6114 26.294C26.8384 25.0082 29.577 24.9356 31.8653 26.076C31.7089 28.6281 30.2766 30.9634 28.0496 32.2492C25.8226 33.5349 23.0839 33.6077 20.7957 32.4671Z" fill="#121212"/>
<path d="M20 1.5625C20.2055 1.5625 20.407 1.47891 20.5523 1.33359C20.6977 1.18828 20.7812 0.986719 20.7812 0.78125C20.7812 0.575781 20.6977 0.374219 20.5523 0.228906C20.407 0.0835938 20.2055 0 20 0C19.7945 0 19.593 0.0835938 19.4477 0.228906C19.3023 0.374219 19.2188 0.575781 19.2188 0.78125C19.2188 0.986719 19.3023 1.18828 19.4477 1.33359C19.593 1.47891 19.7945 1.5625 20 1.5625Z" fill="#121212"/>
</g>
<defs>
<clipPath id="clip0_1_366">
<rect width="40" height="40" fill="white"/>
</clipPath>
</defs>
</svg>
