<svg width="20" height="19" viewBox="0 0 20 19" fill="none" xmlns="http://www.w3.org/2000/svg">
<path d="M16.7173 3.75393C16.3249 3.36135 15.859 3.04993 15.3462 2.83746C14.8334 2.62498 14.2838 2.51562 13.7287 2.51562C13.1737 2.51562 12.624 2.62498 12.1112 2.83746C11.5985 3.04993 11.1326 3.36135 10.7402 3.75393L9.92581 4.56829L9.11146 3.75393C8.31885 2.96132 7.24384 2.51604 6.12292 2.51604C5.002 2.51604 3.92699 2.96132 3.13438 3.75393C2.34177 4.54654 1.89648 5.62155 1.89648 6.74247C1.89648 7.86339 2.34177 8.9384 3.13438 9.73101L3.94874 10.5454L9.92581 16.5224L15.9029 10.5454L16.7173 9.73101C17.1098 9.33861 17.4212 8.87272 17.6337 8.35993C17.8462 7.84715 17.9556 7.29753 17.9556 6.74247C17.9556 6.18741 17.8462 5.63779 17.6337 5.125C17.4212 4.61222 17.1098 4.14632 16.7173 3.75393V3.75393Z" stroke="#121212" stroke-width="1.5" stroke-linecap="round" stroke-linejoin="round"/>
</svg>
