<svg width="18" height="19" viewBox="0 0 18 19" fill="none" xmlns="http://www.w3.org/2000/svg">
<path d="M15.6296 3.70789C15.2465 3.32465 14.7917 3.02063 14.2911 2.81321C13.7905 2.60578 13.254 2.49902 12.7121 2.49902C12.1702 2.49902 11.6337 2.60578 11.1331 2.81321C10.6325 3.02063 10.1777 3.32465 9.7946 3.70789L8.9996 4.50289L8.2046 3.70789C7.43083 2.93412 6.38138 2.49942 5.2871 2.49942C4.19283 2.49942 3.14337 2.93412 2.3696 3.70789C1.59583 4.48166 1.16113 5.53112 1.16113 6.62539C1.16113 7.71967 1.59583 8.76912 2.3696 9.54289L3.1646 10.3379L8.9996 16.1729L14.8346 10.3379L15.6296 9.54289C16.0128 9.15983 16.3169 8.705 16.5243 8.20441C16.7317 7.70381 16.8385 7.16726 16.8385 6.62539C16.8385 6.08353 16.7317 5.54697 16.5243 5.04638C16.3169 4.54578 16.0128 4.09096 15.6296 3.70789V3.70789Z" stroke="#121212" stroke-width="2" stroke-linecap="round" stroke-linejoin="round"/>
</svg>
