<svg width="13" height="19" viewBox="0 0 13 19" fill="none" xmlns="http://www.w3.org/2000/svg">
<g clip-path="url(#clip0_1_147)">
<path d="M10.75 7.98977C10.75 13.0465 6.25 17.3808 6.25 17.3808C6.25 17.3808 1.75 13.0465 1.75 7.98977C1.75 6.26547 2.22411 4.61179 3.06802 3.39252C3.91193 2.17326 5.05653 1.48828 6.25 1.48828C7.44347 1.48828 8.58807 2.17326 9.43198 3.39252C10.2759 4.61179 10.75 6.26547 10.75 7.98977Z" stroke="white" stroke-linecap="round" stroke-linejoin="round"/>
<path d="M6.25 10.1567C7.07843 10.1567 7.75 9.18644 7.75 7.98955C7.75 6.79266 7.07843 5.82239 6.25 5.82239C5.42157 5.82239 4.75 6.79266 4.75 7.98955C4.75 9.18644 5.42157 10.1567 6.25 10.1567Z" stroke="white" stroke-linecap="round" stroke-linejoin="round"/>
</g>
<defs>
<clipPath id="clip0_1_147">
<rect width="12" height="17.3373" fill="white" transform="translate(0.25 0.765625)"/>
</clipPath>
</defs>
</svg>
