<svg width="15" height="51" viewBox="0 0 15 51" fill="none" xmlns="http://www.w3.org/2000/svg">
<path d="M7.5 16.2555C3.66105 16.2555 0.5 12.9478 0.5 8.80547C0.5 4.6631 3.66106 1.35547 7.5 1.35547C11.3389 1.35547 14.5 4.6631 14.5 8.80547C14.5 12.9478 11.3389 16.2555 7.5 16.2555Z" stroke="#1D1D1D"/>
<path d="M7.5 49.6452C6.14634 49.6452 5 48.4731 5 46.9652C5 45.4572 6.14634 44.2852 7.5 44.2852C8.85366 44.2852 10 45.4572 10 46.9652C10 48.4731 8.85366 49.6452 7.5 49.6452Z" stroke="#1D1D1D"/>
<path d="M7.5 30.5661C6.14634 30.5661 5 29.394 5 27.8861C5 26.3781 6.14634 25.2061 7.5 25.2061C8.85366 25.2061 10 26.3781 10 27.8861C10 29.394 8.85366 30.5661 7.5 30.5661Z" stroke="#1D1D1D"/>
<ellipse cx="7.5" cy="8.80585" rx="3.18" ry="3" transform="rotate(90 7.5 8.80585)" fill="#1D1D1D"/>
</svg>
