<svg width="22" height="20" viewBox="0 0 22 20" fill="none" xmlns="http://www.w3.org/2000/svg">
<g clip-path="url(#clip0_1_413)">
<path d="M20.1301 3.94627C20.0117 3.1219 19.2461 2.50015 18.3498 2.50015H7.85434C7.60613 2.50015 7.40529 2.68652 7.40529 2.91683C7.40529 3.14714 7.60613 3.3335 7.85434 3.3335H18.3498C18.7979 3.3335 19.1812 3.64436 19.2399 4.05654L19.8547 8.33344H16.4342L18.904 6.58092C19.1014 6.44136 19.1382 6.17972 18.9882 5.99703C18.8365 5.81351 18.5549 5.78015 18.3585 5.91929L14.9563 8.33341H7.85434C7.5962 8.33341 7.34117 8.34602 7.08956 8.36938L3.63669 5.91929C3.43934 5.78011 3.15872 5.81351 3.007 5.99703C2.85705 6.17972 2.89388 6.44136 3.09119 6.58092L5.90376 8.5766C2.63827 9.37952 0.220703 12.1374 0.220703 15.4166C0.220703 15.647 0.42155 15.8333 0.669755 15.8333H4.38666L3.09124 16.7525C2.89393 16.8921 2.85709 17.1537 3.00704 17.3364C3.09562 17.4438 3.22894 17.5 3.36399 17.5C3.45959 17.5 3.55519 17.4719 3.63673 17.4141L5.86457 15.8333H16.1307L18.3586 17.4141C18.4401 17.4719 18.5357 17.5 18.6313 17.5C18.7664 17.5 18.8997 17.4438 18.9882 17.3364C19.1382 17.1537 19.1014 16.8921 18.9041 16.7525L17.6086 15.8333H21.3255C21.4553 15.8333 21.5781 15.7816 21.6632 15.6913C21.7483 15.6006 21.7877 15.4805 21.7711 15.3617L20.1301 3.94627ZM13.7819 9.16672L10.9976 11.1424L8.21339 9.16672H13.7819ZM1.13371 15C1.34289 12.0613 3.75368 9.67819 6.84455 9.24414L10.2587 11.6667L5.56109 15H1.13371V15ZM7.03896 15L10.9976 12.1911L14.9563 15H7.03896ZM16.4342 15L11.7366 11.6667L15.2598 9.16675H19.9749L20.8125 15H16.4342Z" fill="#121212"/>
<path d="M20.1301 3.94627C20.0117 3.1219 19.2461 2.50015 18.3498 2.50015H7.85434C7.60613 2.50015 7.40529 2.68652 7.40529 2.91683C7.40529 3.14714 7.60613 3.3335 7.85434 3.3335H18.3498C18.7979 3.3335 19.1812 3.64436 19.2399 4.05654L19.8547 8.33344H16.4342L18.904 6.58092C19.1014 6.44136 19.1382 6.17972 18.9882 5.99703C18.8365 5.81351 18.5549 5.78015 18.3585 5.91929L14.9563 8.33341H7.85434C7.5962 8.33341 7.34117 8.34602 7.08956 8.36938L3.63669 5.91929C3.43934 5.78011 3.15872 5.81351 3.007 5.99703C2.85705 6.17972 2.89388 6.44136 3.09119 6.58092L5.90376 8.5766C2.63827 9.37952 0.220703 12.1374 0.220703 15.4166C0.220703 15.647 0.42155 15.8333 0.669755 15.8333H4.38666L3.09124 16.7525C2.89393 16.8921 2.85709 17.1537 3.00704 17.3364C3.09562 17.4438 3.22894 17.5 3.36399 17.5C3.45959 17.5 3.55519 17.4719 3.63673 17.4141L5.86457 15.8333H16.1307L18.3586 17.4141C18.4401 17.4719 18.5357 17.5 18.6313 17.5C18.7664 17.5 18.8997 17.4438 18.9882 17.3364C19.1382 17.1537 19.1014 16.8921 18.9041 16.7525L17.6086 15.8333H21.3255C21.4553 15.8333 21.5781 15.7816 21.6632 15.6913C21.7483 15.6006 21.7877 15.4805 21.7711 15.3617L20.1301 3.94627ZM13.7819 9.16672L10.9976 11.1424L8.21339 9.16672H13.7819ZM1.13371 15C1.34289 12.0613 3.75368 9.67819 6.84455 9.24414L10.2587 11.6667L5.56109 15H1.13371V15ZM7.03896 15L10.9976 12.1911L14.9563 15H7.03896ZM16.4342 15L11.7366 11.6667L15.2598 9.16675H19.9749L20.8125 15H16.4342Z" fill="#121212"/>
</g>
<defs>
<clipPath id="clip0_1_413">
<rect width="21.5541" height="20" fill="white" transform="translate(0.220703)"/>
</clipPath>
</defs>
</svg>
