<svg width="13" height="18" viewBox="0 0 13 18" fill="none" xmlns="http://www.w3.org/2000/svg">
<g clip-path="url(#clip0_1_143)">
<path d="M8.25098 1.5271V5.86143H11.251" stroke="white" stroke-linecap="round" stroke-linejoin="round"/>
<path d="M11.751 0.804443L8.25098 5.86116" stroke="white" stroke-linecap="round" stroke-linejoin="round"/>
<path d="M11.2487 12.3042V14.4714C11.2493 14.6726 11.2208 14.8717 11.165 15.056C11.1092 15.2404 11.0274 15.4059 10.9248 15.5419C10.8222 15.6779 10.701 15.7814 10.5691 15.8459C10.4372 15.9103 10.2974 15.9343 10.1587 15.9162C8.62016 15.6746 7.14225 14.915 5.84375 13.6984C4.63566 12.5893 3.61141 11.1095 2.84375 9.3641C1.99873 7.47954 1.47287 5.3339 1.30875 3.101C1.29625 2.90123 1.31268 2.6999 1.357 2.50981C1.40131 2.31973 1.47253 2.14506 1.56613 1.99692C1.65973 1.84878 1.77365 1.73042 1.90064 1.64938C2.02763 1.56833 2.16492 1.52638 2.30375 1.52619H3.80375C4.0464 1.52274 4.28164 1.64689 4.46563 1.87549C4.64961 2.10409 4.76978 2.42155 4.80375 2.7687C4.86706 3.46224 4.98447 4.14321 5.15375 4.79861C5.22102 5.05717 5.23558 5.33817 5.1957 5.60832C5.15582 5.87847 5.06318 6.12644 4.92875 6.32285L4.29375 7.24028C5.00552 9.04881 6.04197 10.5463 7.29375 11.5746L7.92875 10.6572C8.06469 10.463 8.23632 10.3291 8.42331 10.2715C8.61029 10.2139 8.80478 10.2349 8.98375 10.3321C9.43738 10.5767 9.90871 10.7463 10.3887 10.8378C10.6316 10.8873 10.8534 11.064 11.012 11.3344C11.1706 11.6048 11.2548 11.9499 11.2487 12.3042Z" stroke="white" stroke-linecap="round" stroke-linejoin="round"/>
</g>
<defs>
<clipPath id="clip0_1_143">
<rect width="12" height="17.3373" fill="white" transform="translate(0.25 0.0817871)"/>
</clipPath>
</defs>
</svg>
