<svg width="34" height="34" viewBox="0 0 34 34" fill="none" xmlns="http://www.w3.org/2000/svg">
<path d="M22.6767 26.6565H4.02455C3.12599 26.6565 2.39461 25.9251 2.39461 25.0265V10.062C2.39461 9.72273 2.66995 9.44739 3.00922 9.44739H26.3644C26.7036 9.44739 26.979 9.72273 26.979 10.062V14.9789C26.979 15.3181 26.7036 15.5935 26.3644 15.5935C26.0251 15.5935 25.7498 15.3181 25.7498 14.9789V10.6766H3.62383V25.0265C3.62383 25.2478 3.80329 25.4272 4.02455 25.4272H22.6767C23.016 25.4272 23.2913 25.7026 23.2913 26.0418C23.2913 26.3811 23.016 26.6565 22.6767 26.6565Z" fill="#121212"/>
<path d="M26.3644 10.6769C26.148 10.6769 25.9378 10.5626 25.826 10.3586L22.1137 3.61997C22.0068 3.4233 21.8003 3.30161 21.5753 3.30161H7.79825C7.57331 3.30161 7.3668 3.4233 7.25986 3.61997L3.54761 10.3586C3.38413 10.6573 3.00799 10.7617 2.71298 10.6007C2.4155 10.4372 2.30733 10.0623 2.47082 9.76607L6.18306 3.02749C6.50635 2.43747 7.12587 2.07239 7.79825 2.07239H21.5766C22.249 2.07239 22.8685 2.43747 23.1918 3.02626L26.9028 9.76484C27.0675 10.0623 26.9593 10.436 26.6619 10.5995C26.5672 10.6523 26.4652 10.6769 26.3644 10.6769Z" fill="#121212"/>
<path d="M14.6879 10.6769C14.3487 10.6769 14.0733 10.4016 14.0733 10.0623V2.687C14.0733 2.34773 14.3487 2.07239 14.6879 2.07239C15.0272 2.07239 15.3025 2.34773 15.3025 2.687V10.0623C15.3025 10.4016 15.0272 10.6769 14.6879 10.6769Z" fill="#121212"/>
<path d="M31.2812 31.5736C30.942 31.5736 30.6666 31.2982 30.6666 30.959V28.5005C30.6666 24.7723 27.6329 21.7398 23.9059 21.7398H21.4475C21.1082 21.7398 20.8329 21.4645 20.8329 21.1252C20.8329 20.786 21.1082 20.5106 21.4475 20.5106H23.9059C28.3115 20.5106 31.8959 24.095 31.8959 28.5005V30.959C31.8959 31.2982 31.6205 31.5736 31.2812 31.5736Z" fill="#121212"/>
<path d="M25.75 25.428C25.6086 25.428 25.466 25.3789 25.3505 25.2793L21.0482 21.5916C20.9105 21.4761 20.8331 21.3052 20.8331 21.1258C20.8331 20.9463 20.9105 20.7754 21.0482 20.6599L25.3505 16.9722C25.6074 16.7522 25.9933 16.7805 26.2171 17.0386C26.4383 17.2955 26.4076 17.6839 26.1495 17.9052L22.393 21.1258L26.1507 24.3475C26.4088 24.5688 26.4383 24.956 26.2183 25.2141C26.0941 25.3555 25.9233 25.428 25.75 25.428Z" fill="#121212"/>
</svg>
