<svg width="35" height="35" viewBox="0 0 35 35" fill="none" xmlns="http://www.w3.org/2000/svg">
<path d="M17.4598 33.5805C8.57103 33.5805 1.3653 26.3748 1.3653 17.4861C1.3653 8.59734 8.57103 1.3916 17.4598 1.3916C26.3485 1.3916 33.5542 8.59734 33.5542 17.4861C33.5542 26.3748 26.3485 33.5805 17.4598 33.5805Z" fill="white" stroke="#E5E5E5"/>
<g clip-path="url(#clip0_1_322)">
<path d="M20.2253 12.4154C20.2253 11.8747 20.4154 11.3511 20.7623 10.9363C21.1093 10.5215 21.5911 10.242 22.1233 10.1465C22.6556 10.0511 23.2045 10.1459 23.674 10.4142C24.1434 10.6826 24.5036 11.1075 24.6914 11.6146C24.8793 12.1217 24.8828 12.6787 24.7014 13.1882C24.5201 13.6976 24.1653 14.127 23.6993 14.4014C23.2333 14.6757 22.6856 14.7774 22.1522 14.6887C21.6188 14.6001 21.1335 14.3266 20.7813 13.9163L14.5878 16.7927C14.7302 17.2439 14.7302 17.728 14.5878 18.1792L20.7813 21.0556C21.1536 20.6226 21.6734 20.3433 22.2399 20.2717C22.8065 20.2001 23.3794 20.3414 23.8477 20.6681C24.316 20.9949 24.6464 21.4839 24.7747 22.0403C24.903 22.5968 24.8202 23.181 24.5423 23.6799C24.2644 24.1788 23.8112 24.5567 23.2705 24.7405C22.7298 24.9242 22.1402 24.9007 21.6159 24.6745C21.0915 24.4483 20.6698 24.0355 20.4325 23.5161C20.1952 22.9967 20.1592 22.4077 20.3314 21.8632L14.1379 18.9868C13.8314 19.3441 13.4227 19.599 12.9669 19.7171C12.5111 19.8352 12.0301 19.8108 11.5886 19.6474C11.1471 19.4839 10.7662 19.1891 10.4972 18.8027C10.2282 18.4163 10.084 17.9568 10.084 17.486C10.084 17.0151 10.2282 16.5556 10.4972 16.1692C10.7662 15.7828 11.1471 15.488 11.5886 15.3245C12.0301 15.1611 12.5111 15.1368 12.9669 15.2548C13.4227 15.3729 13.8314 15.6278 14.1379 15.9851L20.3314 13.1087C20.2609 12.8844 20.2251 12.6506 20.2253 12.4154Z" fill="black"/>
</g>
<defs>
<clipPath id="clip0_1_322">
<rect width="14.7506" height="14.7506" fill="white" transform="translate(10.084 10.1104)"/>
</clipPath>
</defs>
</svg>
