<svg width="18" height="19" viewBox="0 0 18 19" fill="none" xmlns="http://www.w3.org/2000/svg">
<g clip-path="url(#clip0_1_102)">
<path d="M6.75 16.75C7.16421 16.75 7.5 16.4142 7.5 16C7.5 15.5858 7.16421 15.25 6.75 15.25C6.33579 15.25 6 15.5858 6 16C6 16.4142 6.33579 16.75 6.75 16.75Z" stroke="#121212" stroke-width="2" stroke-linecap="round" stroke-linejoin="round"/>
<path d="M15 16.75C15.4142 16.75 15.75 16.4142 15.75 16C15.75 15.5858 15.4142 15.25 15 15.25C14.5858 15.25 14.25 15.5858 14.25 16C14.25 16.4142 14.5858 16.75 15 16.75Z" stroke="#121212" stroke-width="2" stroke-linecap="round" stroke-linejoin="round"/>
<path d="M0.75 1H3.75L5.76 11.0425C5.82858 11.3878 6.01643 11.698 6.29066 11.9187C6.56489 12.1395 6.90802 12.2567 7.26 12.25H14.55C14.902 12.2567 15.2451 12.1395 15.5193 11.9187C15.7936 11.698 15.9814 11.3878 16.05 11.0425L17.25 4.75H4.5" stroke="#121212" stroke-width="2" stroke-linecap="round" stroke-linejoin="round"/>
</g>
<defs>
<clipPath id="clip0_1_102">
<rect width="18" height="18" fill="white" transform="translate(0 0.25)"/>
</clipPath>
</defs>
</svg>
