<svg width="167" height="25" viewBox="0 0 167 25" fill="none" xmlns="http://www.w3.org/2000/svg">
<path d="M17.0596 13.3918L17.5928 9.91705H14.2587V7.66217C14.2587 6.71155 14.7244 5.78492 16.2177 5.78492H17.7334V2.82655C17.7334 2.82655 16.3579 2.5918 15.0428 2.5918C12.2971 2.5918 10.5023 4.25605 10.5023 7.2688V9.91705H7.4502V13.3918H10.5023V21.7918H14.2587V13.3918H17.0596Z" fill="white"/>
<path d="M46.7506 7.26812C44.0264 7.26812 41.829 9.46546 41.829 12.1897C41.829 14.9138 44.0264 17.1112 46.7506 17.1112C49.4748 17.1112 51.6721 14.9138 51.6721 12.1897C51.6721 9.46546 49.4748 7.26812 46.7506 7.26812ZM46.7506 15.3893C44.9901 15.3893 43.5509 13.9544 43.5509 12.1897C43.5509 10.4249 44.9859 8.99001 46.7506 8.99001C48.5153 8.99001 49.9502 10.4249 49.9502 12.1897C49.9502 13.9544 48.511 15.3893 46.7506 15.3893ZM53.0214 7.0668C53.0214 7.70502 52.5074 8.21473 51.8734 8.21473C51.2352 8.21473 50.7255 7.70073 50.7255 7.0668C50.7255 6.43287 51.2395 5.91887 51.8734 5.91887C52.5074 5.91887 53.0214 6.43287 53.0214 7.0668ZM56.281 8.23186C56.2082 6.69415 55.8569 5.33205 54.7304 4.20982C53.6082 3.08759 52.2461 2.73636 50.7084 2.65926C49.1235 2.56931 44.3733 2.56931 42.7885 2.65926C41.2551 2.73208 39.893 3.08331 38.7665 4.20554C37.6399 5.32777 37.293 6.68987 37.2159 8.22758C37.126 9.81241 37.126 14.5626 37.2159 16.1474C37.2887 17.6852 37.6399 19.0473 38.7665 20.1695C39.893 21.2917 41.2508 21.643 42.7885 21.7201C44.3733 21.81 49.1235 21.81 50.7084 21.7201C52.2461 21.6472 53.6082 21.296 54.7304 20.1695C55.8526 19.0473 56.2039 17.6852 56.281 16.1474C56.3709 14.5626 56.3709 9.81669 56.281 8.23186ZM54.2335 17.8479C53.8994 18.6875 53.2527 19.3342 52.4089 19.6726C51.1453 20.1738 48.1469 20.0581 46.7506 20.0581C45.3542 20.0581 42.3516 20.1695 41.0923 19.6726C40.2528 19.3385 39.606 18.6917 39.2676 17.8479C38.7665 16.5843 38.8821 13.586 38.8821 12.1897C38.8821 10.7933 38.7707 7.79068 39.2676 6.53138C39.6017 5.69185 40.2485 5.04507 41.0923 4.70669C42.3559 4.20554 45.3542 4.32119 46.7506 4.32119C48.1469 4.32119 51.1496 4.20982 52.4089 4.70669C53.2484 5.04079 53.8952 5.68757 54.2335 6.53138C54.7347 7.79496 54.619 10.7933 54.619 12.1897C54.619 13.586 54.7347 16.5886 54.2335 17.8479Z" fill="white"/>
<path d="M91.9472 7.1035C91.7264 6.27206 91.0758 5.61724 90.2498 5.39502C88.7524 4.99121 82.7484 4.99121 82.7484 4.99121C82.7484 4.99121 76.7445 4.99121 75.2471 5.39502C74.4211 5.61727 73.7705 6.27206 73.5496 7.1035C73.1484 8.61054 73.1484 11.7548 73.1484 11.7548C73.1484 11.7548 73.1484 14.8991 73.5496 16.4062C73.7705 17.2376 74.4211 17.8652 75.2471 18.0874C76.7445 18.4912 82.7484 18.4912 82.7484 18.4912C82.7484 18.4912 88.7524 18.4912 90.2498 18.0874C91.0758 17.8652 91.7264 17.2376 91.9472 16.4062C92.3484 14.8991 92.3484 11.7548 92.3484 11.7548C92.3484 11.7548 92.3484 8.61054 91.9472 7.1035ZM80.7848 14.6096V8.90005L85.8029 11.7549L80.7848 14.6096Z" fill="white"/>
<path d="M126.375 8.8775C126.387 9.04805 126.387 9.21864 126.387 9.38919C126.387 14.5912 122.428 20.5852 115.191 20.5852C112.962 20.5852 110.891 19.9394 109.148 18.8187C109.465 18.8552 109.77 18.8674 110.099 18.8674C111.938 18.8674 113.632 18.2461 114.984 17.1862C113.254 17.1496 111.804 16.0166 111.305 14.4572C111.548 14.4937 111.792 14.5181 112.048 14.5181C112.401 14.5181 112.755 14.4694 113.083 14.3841C111.28 14.0186 109.928 12.4349 109.928 10.5222V10.4735C110.452 10.7659 111.061 10.9486 111.707 10.9729C110.647 10.2663 109.952 9.06024 109.952 7.69576C109.952 6.96481 110.147 6.29475 110.489 5.70998C112.426 8.0978 115.337 9.65717 118.602 9.82775C118.541 9.53537 118.505 9.23083 118.505 8.92625C118.505 6.75769 120.259 4.99121 122.44 4.99121C123.573 4.99121 124.596 5.46634 125.315 6.23385C126.204 6.0633 127.057 5.73435 127.812 5.2836C127.52 6.19733 126.899 6.96484 126.082 7.45212C126.874 7.36688 127.642 7.14754 128.348 6.84301C127.812 7.62267 127.142 8.31706 126.375 8.8775Z" fill="white"/>
<path d="M155.398 2.5918C151.452 2.5918 147.551 5.22305 147.551 9.48153C147.551 12.1897 149.074 13.7285 149.997 13.7285C150.378 13.7285 150.597 12.6667 150.597 12.3667C150.597 12.0089 149.686 11.2472 149.686 9.75851C149.686 6.66563 152.04 4.47291 155.087 4.47291C157.707 4.47291 159.645 5.96165 159.645 8.69677C159.645 10.7395 158.826 14.5709 156.172 14.5709C155.214 14.5709 154.394 13.8785 154.394 12.886C154.394 11.4319 155.41 10.0239 155.41 8.52366C155.41 5.97704 151.798 6.43866 151.798 9.51615C151.798 10.1624 151.879 10.8779 152.167 11.4665C151.636 13.7516 150.551 17.156 150.551 19.5103C150.551 20.2374 150.655 20.9529 150.724 21.6799C150.855 21.8261 150.79 21.8107 150.99 21.7376C152.929 19.0833 152.859 18.564 153.737 15.0903C154.21 15.9904 155.433 16.4751 156.402 16.4751C160.488 16.4751 162.323 12.4936 162.323 8.9045C162.323 5.08457 159.022 2.5918 155.398 2.5918Z" fill="white"/>
</svg>
