<svg width="112" height="20" viewBox="0 0 112 20" fill="none" xmlns="http://www.w3.org/2000/svg">
<path fill-rule="evenodd" clip-rule="evenodd" d="M6.27291 11.7774L2.69929 9.11086C2.02479 8.62465 2.32062 7.64691 3.17656 7.53669L8.2451 7.33314L10.4096 2.44176C10.5605 2.17066 10.8671 2 11.2034 2C11.5397 2 11.8463 2.17155 11.9972 2.44176L14.1617 7.33314L19.2302 7.53669C20.0862 7.64691 20.382 8.62465 19.7075 9.11086L16.1339 11.7774L17.1091 16.9835C17.2216 17.6937 16.4031 18.2252 15.6921 17.9043L11.2034 15.3329L6.71468 17.9034C6.00272 18.2243 5.18524 17.6928 5.29766 16.9826L6.27291 11.7774Z" fill="#121212"/>
<path fill-rule="evenodd" clip-rule="evenodd" d="M50.649 11.7774L47.0754 9.11086C46.4009 8.62465 46.6967 7.64691 47.5527 7.53669L52.6212 7.33314L54.7857 2.44176C54.9366 2.17066 55.2432 2 55.5795 2C55.9158 2 56.2224 2.17155 56.3733 2.44176L58.5378 7.33314L63.6063 7.53669C64.4623 7.64691 64.7581 8.62465 64.0836 9.11086L60.51 11.7774L61.4852 16.9835C61.5977 17.6937 60.7792 18.2252 60.0682 17.9043L55.5795 15.3329L51.0908 17.9034C50.3788 18.2243 49.5613 17.6928 49.6738 16.9826L50.649 11.7774Z" fill="#121212"/>
<path fill-rule="evenodd" clip-rule="evenodd" d="M28.4614 11.7774L24.8878 9.11086C24.2133 8.62465 24.5091 7.64691 25.365 7.53669L30.4336 7.33314L32.5981 2.44176C32.7489 2.17066 33.0556 2 33.3919 2C33.7281 2 34.0348 2.17155 34.1857 2.44176L36.3502 7.33314L41.4187 7.53669C42.2747 7.64691 42.5705 8.62465 41.896 9.11086L38.3224 11.7774L39.2976 16.9835C39.41 17.6937 38.5916 18.2252 37.8806 17.9043L33.3919 15.3329L28.9032 17.9034C28.1912 18.2243 27.3737 17.6928 27.4861 16.9826L28.4614 11.7774Z" fill="#121212"/>
<path fill-rule="evenodd" clip-rule="evenodd" d="M72.8374 11.7774L69.2637 9.11086C68.5892 8.62465 68.8851 7.64691 69.741 7.53669L74.8096 7.33314L76.974 2.44176C77.1249 2.17066 77.4316 2 77.7679 2C78.1041 2 78.4108 2.17155 78.5617 2.44176L80.7261 7.33314L85.7947 7.53669C86.6506 7.64691 86.9465 8.62465 86.272 9.11086L82.6983 11.7774L83.6736 16.9835C83.786 17.6937 82.9676 18.2252 82.2566 17.9043L77.7679 15.3329L73.2791 17.9034C72.5672 18.2243 71.7497 17.6928 71.8621 16.9826L72.8374 11.7774Z" fill="#121212"/>
<path fill-rule="evenodd" clip-rule="evenodd" d="M95.0251 11.7774L91.4515 9.11086C90.777 8.62465 91.0728 7.64691 91.9288 7.53669L96.9973 7.33314L99.1618 2.44176C99.3127 2.17066 99.6193 2 99.9556 2C100.292 2 100.599 2.17155 100.749 2.44176L102.914 7.33314L107.982 7.53669C108.838 7.64691 109.134 8.62465 108.46 9.11086L104.886 11.7774L105.861 16.9835C105.974 17.6937 105.155 18.2252 104.444 17.9043L99.9556 15.3329L95.4669 17.9034C94.7549 18.2243 93.9374 17.6928 94.0499 16.9826L95.0251 11.7774Z" fill="#121212"/>
</svg>
