<svg width="79" height="14" viewBox="0 0 79 14" fill="none" xmlns="http://www.w3.org/2000/svg">
<path fill-rule="evenodd" clip-rule="evenodd" d="M5.13621 7.72382L2.65027 5.97505C2.18107 5.65619 2.38686 5.01497 2.98228 4.94269L6.50814 4.8092L8.01384 1.60136C8.11879 1.42357 8.33212 1.31165 8.56604 1.31165C8.79995 1.31165 9.01329 1.42415 9.11824 1.60136L10.6239 4.8092L14.1498 4.94269C14.7452 5.01497 14.951 5.65619 14.4818 5.97505L11.9959 7.72382L12.6743 11.138C12.7525 11.6038 12.1831 11.9524 11.6886 11.7419L8.56604 10.0555L5.44352 11.7413C4.94826 11.9518 4.37959 11.6032 4.45779 11.1374L5.13621 7.72382Z" fill="#121212"/>
<path fill-rule="evenodd" clip-rule="evenodd" d="M36.0056 7.72382L33.5197 5.97505C33.0505 5.65619 33.2563 5.01497 33.8517 4.94269L37.3776 4.8092L38.8833 1.60136C38.9882 1.42357 39.2015 1.31165 39.4355 1.31165C39.6694 1.31165 39.8827 1.42415 39.9877 1.60136L41.4933 4.8092L45.0192 4.94269C45.6146 5.01497 45.8204 5.65619 45.3512 5.97505L42.8653 7.72382L43.5437 11.138C43.6219 11.6038 43.0525 11.9524 42.558 11.7419L39.4355 10.0555L36.3129 11.7413C35.8177 11.9518 35.249 11.6032 35.3272 11.1374L36.0056 7.72382Z" fill="#121212"/>
<path fill-rule="evenodd" clip-rule="evenodd" d="M20.5709 7.72382L18.085 5.97505C17.6158 5.65619 17.8216 5.01497 18.417 4.94269L21.9429 4.8092L23.4486 1.60136C23.5535 1.42357 23.7668 1.31165 24.0008 1.31165C24.2347 1.31165 24.448 1.42415 24.553 1.60136L26.0587 4.8092L29.5845 4.94269C30.1799 5.01497 30.3857 5.65619 29.9165 5.97505L27.4306 7.72382L28.109 11.138C28.1872 11.6038 27.6179 11.9524 27.1233 11.7419L24.0008 10.0555L20.8782 11.7413C20.383 11.9518 19.8143 11.6032 19.8925 11.1374L20.5709 7.72382Z" fill="#121212"/>
<path fill-rule="evenodd" clip-rule="evenodd" d="M51.4407 7.72382L48.9547 5.97505C48.4855 5.65619 48.6913 5.01497 49.2867 4.94269L52.8126 4.8092L54.3183 1.60136C54.4232 1.42357 54.6366 1.31165 54.8705 1.31165C55.1044 1.31165 55.3177 1.42415 55.4227 1.60136L56.9284 4.8092L60.4542 4.94269C61.0497 5.01497 61.2554 5.65619 60.7862 5.97505L58.3003 7.72382L58.9787 11.138C59.0569 11.6038 58.4876 11.9524 57.993 11.7419L54.8705 10.0555L51.748 11.7413C51.2527 11.9518 50.684 11.6032 50.7622 11.1374L51.4407 7.72382Z" fill="#121212"/>
<path fill-rule="evenodd" clip-rule="evenodd" d="M66.8753 7.72382L64.3894 5.97505C63.9202 5.65619 64.126 5.01497 64.7214 4.94269L68.2473 4.8092L69.753 1.60136C69.8579 1.42357 70.0713 1.31165 70.3052 1.31165C70.5391 1.31165 70.7524 1.42415 70.8574 1.60136L72.3631 4.8092L75.8889 4.94269C76.4844 5.01497 76.6901 5.65619 76.2209 5.97505L73.735 7.72382L74.4134 11.138C74.4916 11.6038 73.9223 11.9524 73.4277 11.7419L70.3052 10.0555L67.1827 11.7413C66.6874 11.9518 66.1187 11.6032 66.1969 11.1374L66.8753 7.72382Z" fill="#E5E5E5"/>
</svg>
