<svg width="19" height="16" viewBox="0 0 19 16" fill="none" xmlns="http://www.w3.org/2000/svg">
<path fill-rule="evenodd" clip-rule="evenodd" d="M5.49565 8.33307L2.81543 6.33314C2.30957 5.96849 2.53144 5.23518 3.17339 5.15252L6.9748 4.99986L8.59816 1.33132C8.71132 1.128 8.94132 1 9.19352 1C9.44571 1 9.67572 1.12866 9.78888 1.33132L11.4122 4.99986L15.2137 5.15252C15.8556 5.23518 16.0775 5.96849 15.5716 6.33314L12.8914 8.33307L13.6228 12.2376C13.7071 12.7702 13.0933 13.1689 12.5601 12.9282L9.19352 10.9996L5.82698 12.9276C5.29301 13.1682 4.6799 12.7696 4.76421 12.2369L5.49565 8.33307Z" fill="#E09523"/>
</svg>
