<svg width="19" height="16" viewBox="0 0 19 16" fill="none" xmlns="http://www.w3.org/2000/svg">
<path fill-rule="evenodd" clip-rule="evenodd" d="M5.49596 8.33307L2.81574 6.33314C2.30987 5.96849 2.53174 5.23518 3.17369 5.15252L6.9751 4.99986L8.59847 1.33132C8.71162 1.128 8.94163 1 9.19382 1C9.44602 1 9.67603 1.12866 9.78918 1.33132L11.4125 4.99986L15.214 5.15252C15.8559 5.23518 16.0778 5.96849 15.5719 6.33314L12.8917 8.33307L13.6231 12.2376C13.7074 12.7702 13.0936 13.1689 12.5604 12.9282L9.19382 10.9996L5.82728 12.9276C5.29331 13.1682 4.68021 12.7696 4.76452 12.2369L5.49596 8.33307Z" fill="#E09523"/>
</svg>
