<svg width="90" height="16" viewBox="0 0 90 16" fill="none" xmlns="http://www.w3.org/2000/svg">
<path fill-rule="evenodd" clip-rule="evenodd" d="M5.6833 9.42155L2.82441 7.2883C2.28481 6.89933 2.52148 6.11714 3.20622 6.02896L7.26106 5.86612L8.99265 1.95302C9.11335 1.73614 9.35869 1.59961 9.6277 1.59961C9.89671 1.59961 10.142 1.73685 10.2627 1.95302L11.9943 5.86612L16.0492 6.02896C16.7339 6.11714 16.9706 6.89933 16.431 7.2883L13.5721 9.42155L14.3523 13.5864C14.4422 14.1545 13.7875 14.5798 13.2187 14.3231L9.6277 12.2659L6.03672 14.3224C5.46715 14.5791 4.81317 14.1538 4.9031 13.5857L5.6833 9.42155Z" fill="#121212"/>
<path fill-rule="evenodd" clip-rule="evenodd" d="M41.1843 9.42155L38.3254 7.2883C37.7859 6.89933 38.0225 6.11714 38.7073 6.02896L42.7621 5.86612L44.4937 1.95302C44.6144 1.73614 44.8597 1.59961 45.1287 1.59961C45.3977 1.59961 45.6431 1.73685 45.7638 1.95302L47.4954 5.86612L51.5502 6.02896C52.235 6.11714 52.4716 6.89933 51.932 7.2883L49.0731 9.42155L49.8533 13.5864C49.9433 14.1545 49.2885 14.5798 48.7197 14.3231L45.1287 12.2659L41.5378 14.3224C40.9682 14.5791 40.3142 14.1538 40.4041 13.5857L41.1843 9.42155Z" fill="#121212"/>
<path fill-rule="evenodd" clip-rule="evenodd" d="M23.4343 9.42155L20.5754 7.2883C20.0358 6.89933 20.2725 6.11714 20.9572 6.02896L25.012 5.86612L26.7436 1.95302C26.8643 1.73614 27.1097 1.59961 27.3787 1.59961C27.6477 1.59961 27.893 1.73685 28.0137 1.95302L29.7453 5.86612L33.8001 6.02896C34.4849 6.11714 34.7216 6.89933 34.182 7.2883L31.3231 9.42155L32.1033 13.5864C32.1932 14.1545 31.5384 14.5798 30.9697 14.3231L27.3787 12.2659L23.7877 14.3224C23.2181 14.5791 22.5641 14.1538 22.6541 13.5857L23.4343 9.42155Z" fill="#121212"/>
<path fill-rule="evenodd" clip-rule="evenodd" d="M58.9353 9.42155L56.0764 7.2883C55.5368 6.89933 55.7734 6.11714 56.4582 6.02896L60.513 5.86612L62.2446 1.95302C62.3653 1.73614 62.6106 1.59961 62.8797 1.59961C63.1487 1.59961 63.394 1.73685 63.5147 1.95302L65.2463 5.86612L69.3011 6.02896C69.9859 6.11714 70.2225 6.89933 69.6829 7.2883L66.824 9.42155L67.6042 13.5864C67.6942 14.1545 67.0394 14.5798 66.4706 14.3231L62.8797 12.2659L59.2887 14.3224C58.7191 14.5791 58.0651 14.1538 58.1551 13.5857L58.9353 9.42155Z" fill="#121212"/>
<path fill-rule="evenodd" clip-rule="evenodd" d="M76.6852 9.42155L73.8263 7.2883C73.2867 6.89933 73.5234 6.11714 74.2081 6.02896L78.263 5.86612L79.9945 1.95302C80.1152 1.73614 80.3606 1.59961 80.6296 1.59961C80.8986 1.59961 81.1439 1.73685 81.2646 1.95302L82.9962 5.86612L87.0511 6.02896C87.7358 6.11714 87.9725 6.89933 87.4329 7.2883L84.574 9.42155L85.3542 13.5864C85.4441 14.1545 84.7893 14.5798 84.2206 14.3231L80.6296 12.2659L77.0386 14.3224C76.469 14.5791 75.8151 14.1538 75.905 13.5857L76.6852 9.42155Z" fill="#121212"/>
</svg>
