<svg width="61" height="13" viewBox="0 0 61 13" fill="none" xmlns="http://www.w3.org/2000/svg">
<path fill-rule="evenodd" clip-rule="evenodd" d="M3.89179 7.79575L1.9615 6.18353C1.59717 5.88957 1.75696 5.29842 2.2193 5.23179L4.95708 5.10872L6.12623 2.15137C6.20772 1.98746 6.37337 1.88428 6.555 1.88428C6.73664 1.88428 6.90229 1.988 6.98378 2.15137L8.15293 5.10872L10.8907 5.23179C11.353 5.29842 11.5128 5.88957 11.1485 6.18353L9.21822 7.79575L9.745 10.9433C9.80572 11.3727 9.36363 11.6941 8.97959 11.5001L6.555 9.94538L4.13042 11.4996C3.74585 11.6936 3.30429 11.3722 3.36501 10.9428L3.89179 7.79575Z" fill="#121212"/>
<path fill-rule="evenodd" clip-rule="evenodd" d="M27.8615 7.79575L25.9312 6.18353C25.5668 5.88957 25.7266 5.29842 26.189 5.23179L28.9267 5.10872L30.0959 2.15137C30.1774 1.98746 30.343 1.88428 30.5247 1.88428C30.7063 1.88428 30.872 1.988 30.9534 2.15137L32.1226 5.10872L34.8604 5.23179C35.3227 5.29842 35.4825 5.88957 35.1182 6.18353L33.1879 7.79575L33.7147 10.9433C33.7754 11.3727 33.3333 11.6941 32.9493 11.5001L30.5247 9.94538L28.1001 11.4996C27.7155 11.6936 27.274 11.3722 27.3347 10.9428L27.8615 7.79575Z" fill="#121212"/>
<path fill-rule="evenodd" clip-rule="evenodd" d="M15.8766 7.79575L13.9463 6.18353C13.582 5.88957 13.7418 5.29842 14.2041 5.23179L16.9419 5.10872L18.1111 2.15137C18.1926 1.98746 18.3582 1.88428 18.5398 1.88428C18.7215 1.88428 18.8871 1.988 18.9686 2.15137L20.1378 5.10872L22.8755 5.23179C23.3379 5.29842 23.4977 5.88957 23.1333 6.18353L21.203 7.79575L21.7298 10.9433C21.7906 11.3727 21.3485 11.6941 20.9644 11.5001L18.5398 9.94538L16.1152 11.4996C15.7307 11.6936 15.2891 11.3722 15.3498 10.9428L15.8766 7.79575Z" fill="#121212"/>
<path fill-rule="evenodd" clip-rule="evenodd" d="M39.8465 7.79575L37.9162 6.18353C37.5519 5.88957 37.7117 5.29842 38.174 5.23179L40.9118 5.10872L42.0809 2.15137C42.1624 1.98746 42.3281 1.88428 42.5097 1.88428C42.6913 1.88428 42.857 1.988 42.9385 2.15137L44.1076 5.10872L46.8454 5.23179C47.3078 5.29842 47.4676 5.88957 47.1032 6.18353L45.1729 7.79575L45.6997 10.9433C45.7604 11.3727 45.3183 11.6941 44.9343 11.5001L42.5097 9.94538L40.0851 11.4996C39.7006 11.6936 39.259 11.3722 39.3197 10.9428L39.8465 7.79575Z" fill="#121212"/>
<path fill-rule="evenodd" clip-rule="evenodd" d="M51.8313 7.79575L49.901 6.18353C49.5367 5.88957 49.6965 5.29842 50.1588 5.23179L52.8966 5.10872L54.0658 2.15137C54.1473 1.98746 54.3129 1.88428 54.4945 1.88428C54.6762 1.88428 54.8418 1.988 54.9233 2.15137L56.0925 5.10872L58.8303 5.23179C59.2926 5.29842 59.4524 5.88957 59.0881 6.18353L57.1578 7.79575L57.6845 10.9433C57.7453 11.3727 57.3032 11.6941 56.9191 11.5001L54.4945 9.94538L52.07 11.4996C51.6854 11.6936 51.2438 11.3722 51.3046 10.9428L51.8313 7.79575Z" fill="#E5E5E5"/>
</svg>
